<?xml version="1.0" standalone="no"?>
<!DOCTYPE svg PUBLIC "-//W3C//DTD SVG 20010904//EN"
 "http://www.w3.org/TR/2001/REC-SVG-20010904/DTD/svg10.dtd">
<svg version="1.0" xmlns="http://www.w3.org/2000/svg"
 width="508.000000pt" height="508.000000pt" viewBox="0 0 508.000000 508.000000"
 preserveAspectRatio="xMidYMid meet">
<metadata>
Created by potrace 1.14, written by Peter Selinger 2001-2017
</metadata>
<g transform="translate(0.000000,508.000000) scale(0.100000,-0.100000)"
fill="#000000" stroke="none">
<path d="M632 5060 c-102 -24 -206 -72 -293 -138 -67 -51 -159 -150 -159 -171
0 -6 -4 -11 -9 -11 -12 0 -87 -154 -101 -210 -7 -25 -15 -54 -18 -65 -4 -11
-8 -850 -9 -1865 -3 -2007 -5 -1904 52 -2044 14 -33 27 -65 28 -71 1 -5 4 -12
7 -15 17 -17 53 -76 53 -86 0 -7 4 -11 8 -9 8 5 45 -46 41 -57 -1 -5 4 -7 11
-5 6 1 11 -4 9 -11 -1 -8 1 -11 6 -8 5 3 18 -5 29 -17 11 -12 30 -29 43 -37
12 -8 28 -19 34 -25 6 -5 28 -19 49 -29 20 -11 37 -22 37 -26 0 -4 6 -7 13 -8
28 -2 103 -35 110 -48 7 -11 12 -12 22 -4 7 6 16 7 19 2 3 -5 19 -9 36 -10 17
0 46 -4 63 -8 18 -4 836 -7 1819 -7 1130 0 1785 -4 1781 -10 -3 -5 7 -1 23 9
21 14 26 15 20 4 -7 -12 -6 -13 4 -3 11 10 18 9 34 -5 12 -9 18 -13 14 -8 -4
5 -3 15 3 23 10 11 14 10 25 -4 10 -12 12 -13 9 -3 -4 11 10 20 52 33 32 10
64 21 72 24 9 4 11 1 7 -8 -5 -10 -3 -9 6 1 28 31 58 42 76 28 15 -11 15 -11
5 2 -10 13 -8 18 8 28 11 7 25 10 32 6 7 -4 9 -4 5 1 -4 4 15 25 42 47 55 44
110 97 127 125 6 10 16 17 22 16 6 -2 8 3 5 10 -2 7 4 22 16 32 11 10 20 26
20 37 0 10 6 18 13 18 7 0 13 8 14 18 1 9 14 51 29 92 14 41 29 91 33 110 3
19 6 870 6 1890 0 2085 7 1898 -76 2065 -76 154 -190 268 -344 344 -166 82 27
75 -2050 77 -1779 2 -1853 2 -1933 -16z"/>
<path d="M975 60 c-3 -5 -1 -10 4 -10 6 0 11 5 11 10 0 6 -2 10 -4 10 -3 0 -8
-4 -11 -10z"/>
<path d="M1610 60 c0 -5 5 -10 11 -10 5 0 7 5 4 10 -3 6 -8 10 -11 10 -2 0 -4
-4 -4 -10z"/>
<path d="M2255 60 c-3 -5 -1 -10 4 -10 6 0 11 5 11 10 0 6 -2 10 -4 10 -3 0
-8 -4 -11 -10z"/>
<path d="M3215 60 c-3 -5 -1 -10 4 -10 6 0 11 5 11 10 0 6 -2 10 -4 10 -3 0
-8 -4 -11 -10z"/>
<path d="M3535 60 c-3 -5 -1 -10 4 -10 6 0 11 5 11 10 0 6 -2 10 -4 10 -3 0
-8 -4 -11 -10z"/>
<path d="M3855 60 c-3 -5 -1 -10 4 -10 6 0 11 5 11 10 0 6 -2 10 -4 10 -3 0
-8 -4 -11 -10z"/>
<path d="M4170 60 c0 -5 5 -10 11 -10 5 0 7 5 4 10 -3 6 -8 10 -11 10 -2 0 -4
-4 -4 -10z"/>
</g>
</svg>
